Coordinates
version=1
nRows=10
nColumns=40
inDegrees=yes

Units are S.I. units (second, meters, Newtons, ...)
Angles are in degrees.

endheader
time	pelvis_tilt	pelvis_list	pelvis_rotation	pelvis_tx	pelvis_ty	pelvis_tz	hip_flexion_r	hip_adduction_r	hip_rotation_r	knee_angle_r	knee_angle_r_beta	ankle_angle_r	subtalar_angle_r	mtp_angle_r	hip_flexion_l	hip_adduction_l	hip_rotation_l	knee_angle_l	knee_angle_l_beta	ankle_angle_l	subtalar_angle_l	mtp_angle_l	lumbar_extension	lumbar_bending	lumbar_rotation	arm_flex_r	arm_add_r	arm_rot_r	elbow_flex_r	pro_sup_r	wrist_flex_r	wrist_dev_r	arm_flex_l	arm_add_l	arm_rot_l	elbow_flex_l	pro_sup_l	wrist_flex_l	wrist_dev_l
     11.69000000	     -1.68135086	     -4.09909635	      4.12537708	      1.09570025	      0.91987386	      0.51923753	     14.23616196	      6.00035663	     -5.90458962	     27.06673958	     27.06673958	     17.37847924	     -1.99363422	     -1.88915019	     28.52053870	    -15.36587098	      5.17168560	     74.21252686	     74.21252686	     11.71492865	    -19.01166600	     13.79332606	    -11.03650785	      5.02134742	     -0.34592737	     25.70213770	    -15.50853987	     -3.49395978	     53.88592452	     45.62509819	      0.00000000	      0.00000000	     -1.54333800	     -9.09480132	      5.65787094	     29.45212719	     45.02027889	      0.00000000	      0.00000000
     11.71107143	     -1.69528672	     -4.01825022	      5.10090721	      1.09429286	      0.91755257	      0.51902221	     14.78807639	      6.04458954	     -5.71443503	     28.37847480	     28.37847480	     17.96491607	     -4.08854950	     -1.25260212	     29.88904370	    -14.92510760	      5.34003388	     71.53253830	     71.53253830	     13.05937637	    -19.14555525	     16.16606421	    -11.00803211	      5.05355971	     -0.37495537	     28.68777692	    -15.65247319	     -2.73250251	     55.41711034	     45.54918635	      0.00000000	      0.00000000	     -2.76762974	     -8.58319615	      6.59792693	     26.87528515	     44.91312376	      0.00000000	      0.00000000
     11.73214286	     -1.53834428	     -3.89668398	      6.11478817	      1.09287624	      0.91569394	      0.51873052	     14.98563571	      6.01188821	     -5.75582283	     29.40079943	     29.40079943	     18.33286865	     -5.78437278	     -1.23639195	     30.74401957	    -14.46623039	      5.26473331	     68.19431891	     68.19431891	     13.68384225	    -19.23670092	     16.44513816	    -11.27723871	      5.03807311	     -0.44052156	     31.69723582	    -15.56449698	     -2.76587173	     57.48190392	     45.49275698	      0.00000000	      0.00000000	     -4.57829115	     -8.28309877	      6.91010888	     26.00356209	     44.84057714	      0.00000000	      0.00000000
     11.75321429	     -1.46453178	     -3.78703159	      7.17556516	      1.09133220	      0.91406244	      0.51827724	     15.14248775	      6.01596420	     -5.73662774	     30.15933715	     30.15933715	     18.57533268	     -7.61832425	     -1.02685522	     31.49191100	    -13.86239466	      5.19551060	     64.47772432	     64.47772432	     14.16825033	    -19.27986688	     16.77109751	    -11.48023311	      5.04430305	     -0.60859205	     34.67418668	    -15.53413041	     -2.58675386	     59.83450387	     45.41850228	      0.00000000	      0.00000000	     -6.40076382	     -8.05517549	      7.31584538	     25.22315822	     44.74906958	      0.00000000	      0.00000000
     11.77428571	     -1.44836259	     -3.72524633	      8.25859384	      1.08956248	      0.91278618	      0.51763816	     15.29320365	      6.01784126	     -5.87561477	     30.78001402	     30.78001402	     19.04537802	     -9.07153221	      0.06718826	     32.08132561	    -13.18330345	      5.13440182	     60.41239062	     60.41239062	     14.18022671	    -19.25815405	     16.40632722	    -11.66525186	      5.16325584	     -0.18104599	     36.94978986	    -16.50558277	     -1.57052747	     63.59236790	     45.30473769	      0.00000000	      0.00000000	     -8.18758377	     -8.85649517	     13.77930946	     25.91547746	     43.86956669	      0.00000000	      0.00000000
     11.79535714	     -1.49624714	     -3.54323657	      9.32018726	      1.08758744	      0.91200987	      0.51666320	     15.35224732	      5.75616783	     -6.29762001	     31.13438226	     31.13438226	     19.21078522	     -9.98506282	      0.09197217	     32.48748477	    -12.19489336	      5.12153033	     56.15116921	     56.15116921	     14.11729968	    -19.17345067	     16.68745878	    -11.76732789	      5.09355062	      0.10947388	     39.89770260	    -16.87857539	     -1.81134507	     65.11036816	     45.27696272	      0.00000000	      0.00000000	     -9.41419019	     -8.74483042	     13.88351925	     25.57479443	     43.84202397	      0.00000000	      0.00000000
     11.81642857	     -1.57609815	     -3.39769201	     10.34101855	      1.08555754	      0.91178787	      0.51559462	     15.32732414	      5.52463337	     -6.71917771	     31.26328053	     31.26328053	     19.29360338	    -10.78974515	      0.36092790	     32.61171206	    -11.28208303	      4.99677029	     51.51418282	     51.51418282	     12.66651832	    -18.98656091	     13.96507512	    -11.94558510	      5.11235918	      0.14156414	     42.28483021	    -17.30535205	     -1.24456722	     68.49536588	     45.16736464	      0.00000000	      0.00000000	    -11.05016164	     -8.98640598	     14.41638165	     26.74114340	     43.81051011	      0.00000000	      0.00000000
     11.83750000	     -1.77399049	     -3.22511230	     11.31613717	      1.08333852	      0.91199991	      0.51424754	     15.25967276	      5.15200584	     -7.34717046	     31.10070599	     31.10070599	     19.33275645	    -11.07458769	      0.45373067	     32.78055960	    -10.15615296	      5.14398749	     47.09833188	     47.09833188	     11.78194009	    -18.58486701	     13.65194091	    -11.94522544	      5.07012763	      0.12326745	     45.04765875	    -17.28952649	     -1.36350267	     70.38842189	     45.12538943	      0.00000000	      0.00000000	    -12.06538208	     -8.96245878	     14.68303375	     26.77116853	     43.77613684	      0.00000000	      0.00000000
     11.85857143	     -2.03706470	     -3.04689842	     12.14863112	      1.08103357	      0.91274809	      0.51291123	     15.10150624	      4.78019761	     -7.89999398	     30.64260812	     30.64260812	     19.27578912	    -11.20096885	      0.58634660	     32.86134566	     -9.10041549	      5.26056354	     42.81390677	     42.81390677	     10.91912361	    -17.62552334	     13.70451630	    -11.88657355	      4.95123832	      0.39652959	     47.66404340	    -17.49881557	     -1.48528596	     71.89289310	     45.09337867	      0.00000000	      0.00000000	    -12.70228531	     -8.97011300	     14.77533516	     26.95862486	     43.75916001	      0.00000000	      0.00000000
     11.87964286	     -2.24249353	     -3.01068571	     12.93347791	      1.07886078	      0.91382611	      0.51153710	     14.76187497	      4.50252597	     -8.73518419	     29.94686730	     29.94686730	     19.15233011	    -10.77135995	      0.42208181	     32.62982454	     -8.38416221	      5.21243347	     38.28283697	     38.28283697	      7.76777880	    -16.75014031	      8.12057465	    -11.94138868	      5.01996636	      0.64451877	     49.71189241	    -17.90396695	     -1.24643335	     75.12911463	     45.04542824	      0.00000000	      0.00000000	    -13.85967399	     -9.56027324	     16.79617260	     29.26851722	     43.68176127	      0.00000000	      0.00000000
